<?xml version="1.0" ?>
<svg style="enable-background:new 0 0 48 48;" height="1em" width="1em" version="1.1" fill="grey" viewBox="0 10 40 30" xml:space="preserve" xmlns="http://www.w3.org/2000/svg" xmlns:xlink="http://www.w3.org/1999/xlink"><g id="Padding__x26__Artboard"/><g id="Icons"><g><path d="M33.95079,21.43774H14.96837v1.74414l6.45654,2.61279    c0.11377,0.04639,0.18799,0.15723,0.18701,0.28027l-0.09558,13.58447v0.59961h5.95496v-0.59961l0.2793-14.00098    c0.00244-0.11768,0.07324-0.22363,0.18164-0.27002l6.01855-2.58203V21.43774z M31.05138,23.01831H17.62853    c-0.16553,0-0.2998-0.13428-0.2998-0.2998c0-0.16553,0.13428-0.29981,0.2998-0.29981h13.42285    c0.16553,0,0.2998,0.13428,0.2998,0.29981C31.35118,22.88403,31.21691,23.01831,31.05138,23.01831z"/>
<path  d="M11.69005,25.18579c-0.12012-0.04541-0.19824-0.1626-0.19385-0.29102l0.21387-6.10742    c0.00586-0.16162,0.13818-0.28955,0.2998-0.28955h0.10577l0.0163-0.09814c0.10645-0.64453,0.23242-1.23926,0.37354-1.76709    l0.1322-0.44482H11.963V8.04077c0-0.16553-0.13428-0.2998-0.2998-0.2998s-0.2998,0.13428-0.2998,0.2998v8.14697h-1.01367v15.36182    h1.32086l0.42993-6.17133C11.85625,25.25409,11.70006,25.18958,11.69005,25.18579z" />
<path  d="M13.94567,18.4978h0.66595c0.39459-1.33228,2.70837-8.22058,8.39142-8.30078    c0.17822-0.01465,0.30225,0.12939,0.3042,0.29541c0.00244,0.16602-0.12988,0.30225-0.29541,0.3042    c-4.98462,0.0708-7.26007,6.11841-7.7702,7.70117h20.01685h0.61273h0.60797C34.82561,7.6441,24.21721,7.93439,24.13585,7.94409    c-0.08862-0.00311-8.20203-0.38055-10.87225,8.24365l-0.53998,2.31006h0.60852H13.94567z M24.85607,10.19751    c0.05518,0.00342,1.35645,0.08887,2.01611,0.26465c0.15967,0.04297,0.25488,0.20752,0.2124,0.36768    c-0.03613,0.13379-0.15723,0.22266-0.29004,0.22266c-0.02539,0-0.05127-0.00342-0.07764-0.01025    c-0.60254-0.16113-1.88623-0.24512-1.89893-0.24609c-0.16553-0.01074-0.29102-0.15332-0.28027-0.31836    C24.54894,10.31177,24.70714,10.18481,24.85607,10.19751z" />
<path  d="M14.48497,30.56665c-0.00928,0.15918-0.1416,0.28174-0.29883,0.28174    c-0.00635,0-0.01221,0-0.01855-0.00049c-0.16553-0.00977-0.2915-0.15186-0.28125-0.31738l0.22772-3.78156    c-0.53943-0.45966-1.03094-0.79968-1.43475-1.04449l-0.57129,8.1991l-0.05054,0.6701l6.81299,4.09546v-0.70074    c-0.13739-5.5293-2.27173-8.84845-4.18659-10.70465L14.48497,30.56665z"/><path d="M37.03722,25.00562l-0.39594-5.90771h-1.28278l-0.00006-0.00049H14.83898l-0.00146,0.00049    c-0.00122,0-0.00244-0.00049-0.00366-0.00049h-0.9953l-0.00006,0.00049h-1.53906l-0.19629,5.61377    c0.12231,0.05664,0.30646,0.15063,0.51984,0.2688c0.005,0.005,0.01373,0.00464,0.01831,0.01001    c0.42828,0.23859,1.00458,0.60413,1.6507,1.1322c0.04016,0.0329,0.24066,0.18695,0.42206,0.3653    c2.14545,1.91504,4.73944,5.52991,4.77875,11.87701v0.75739l1.39258,1.07416c0.00934,0.00726,0.02264,0.00513,0.03271,0.01117    v-0.74304l0.09277-13.19l-6.45508-2.6123c-0.11328-0.0459-0.18701-0.15625-0.18701-0.27832v-2.24609    c0-0.16553,0.13428-0.2998,0.2998-0.2998H34.2506c0.16553,0,0.2998,0.13428,0.2998,0.2998v1.86621    c0,0.12012-0.07129,0.22852-0.18164,0.27588l-6.02246,2.5835l-0.26971,14.00836l1.20331-0.81451    C29.24083,37.73364,29.31163,28.86304,37.03722,25.00562z" />
<path  d="M37.05065,25.6958l-0.5791,0.32251c-5.99231,3.53662-6.56873,10.06012-6.59338,12.06793    l-0.00574,0.68848l7.6228-4.20221c0.10205-0.05615,0.1626-0.16699,0.1543-0.28369L37.05065,25.6958z" />
</g></g></svg>